<?xml version="1.0" encoding="UTF-8" standalone="no"?>
<!-- Created with Inkscape (http://www.inkscape.org/) -->

<svg
   width="210mm"
   height="297mm"
   viewBox="0 0 210 297"
   version="1.1"
   id="svg5"
   inkscape:version="1.2.1 (9c6d41e410, 2022-07-14)"
   sodipodi:docname="app_logo.svg"
   inkscape:export-filename="app_logo.png"
   inkscape:export-xdpi="96"
   inkscape:export-ydpi="96"
   xmlns:inkscape="http://www.inkscape.org/namespaces/inkscape"
   xmlns:sodipodi="http://sodipodi.sourceforge.net/DTD/sodipodi-0.dtd"
   xmlns="http://www.w3.org/2000/svg"
   xmlns:svg="http://www.w3.org/2000/svg">
  <sodipodi:namedview
     id="namedview7"
     pagecolor="#ffffff"
     bordercolor="#000000"
     borderopacity="0.25"
     inkscape:showpageshadow="2"
     inkscape:pageopacity="0.0"
     inkscape:pagecheckerboard="0"
     inkscape:deskcolor="#d1d1d1"
     inkscape:document-units="mm"
     showgrid="false"
     inkscape:zoom="2.8472754"
     inkscape:cx="309.0674"
     inkscape:cy="383.87576"
     inkscape:window-width="1304"
     inkscape:window-height="745"
     inkscape:window-x="54"
     inkscape:window-y="-8"
     inkscape:window-maximized="1"
     inkscape:current-layer="layer1" />
  <defs
     id="defs2" />
  <g
     inkscape:label="Layer 1"
     inkscape:groupmode="layer"
     id="layer1">
    <g
       id="g8748"
       transform="translate(-4.0887042,-15.983116)">
      <g
         id="g8478"
         transform="matrix(1.0433827,0,0,0.75080768,-2.9748496,27.290549)">
        <g
           id="g7617"
           transform="matrix(1.2068127,0,0,0.76634369,-15.988949,30.086586)">
          <path
             id="path6892"
             style="stroke-width:0.313015"
             d="m 76.197933,114.71858 c -2.110727,1.03447 -2.350563,4.57096 -6.023922,8.94054 5.004739,-1.44557 4.643669,-3.84284 7.30033,-3.54294 2.903768,0.32779 3.925901,2.33466 6.450769,1.77612 0.561149,-0.12413 0.139755,-1.20691 -0.06098,-1.91874 0.636307,0.53686 1.04654,1.80427 1.48363,2.23965 -0.477354,-1.50542 1.529437,-6.99205 1.230388,-8.40668 -0.299048,-1.41463 -2.643386,-1.76597 -4.039858,-1.74787 -0.749416,0.01 -1.00291,0.4291 -2.157893,0.99405 -0.705266,0.34498 -2.676677,0.92788 -4.182464,1.66587 z m 4.336704,1.46415 c 0.405013,-0.0114 0.498143,0.84579 0.498143,0.84579 h -1.995744 c 0,0 1.114687,-0.83504 1.497601,-0.84579 z m -1.461944,0.91658 h 1.921846 v 0.91984 h -1.921846 z m 0.780314,0.13126 v 0.72295 h 0.361218 v -0.72295 z"
             sodipodi:nodetypes="scssccsasssccscccccccccc" />
          <path
             style="stroke-width:0.264999"
             d="m 84.159954,120.53192 c 2.520517,4.31473 2.194424,6.31154 -0.380668,7.48475 -1.132989,0.51619 -1.741221,0.65768 -3.818238,0.91138 -1.29332,0.15797 -3.682343,0.0433 -4.785287,-0.35139 -1.620594,-0.57997 -2.206224,-1.64381 -2.019053,-2.77132 0.351978,-2.1203 2.828387,-3.31099 5.277083,-3.70521 3.852722,-0.62026 6.903021,1.26171 5.726163,-1.56861 z"
             id="path7076"
             sodipodi:nodetypes="csssascc" />
          <path
             id="rect7167"
             style="stroke-width:0.304038"
             d="m 75.639976,128.99086 c 1.814392,0.31466 3.562955,0.41394 5.24226,0.0821 l -0.197124,7.09646 c -1.525775,-0.90165 -3.142127,-1.10889 -4.930147,0 z"
             sodipodi:nodetypes="ccccc" />
          <path
             id="path7180"
             style="stroke-width:0.264999"
             d="m 78.208663,135.55555 a 2.4311948,1.806969 0 0 0 -2.430859,1.80712 2.4311948,1.806969 0 0 0 2.430859,1.80661 2.4311948,1.806969 0 0 0 2.431376,-1.80661 2.4311948,1.806969 0 0 0 -2.431376,-1.80712 z m 0.0217,1.31723 a 0.62724441,0.60401309 0 0 1 0.627352,0.6041 0.62724441,0.60401309 0 0 1 -0.627352,0.6041 0.62724441,0.60401309 0 0 1 -0.627352,-0.6041 0.62724441,0.60401309 0 0 1 0.627352,-0.6041 z" />
        </g>
        <path
           style="fill:#000000;fill-opacity:1;stroke-width:0.382002;stroke-dasharray:none"
           id="path7738"
           d="m 72.013447,114.10543 c 0.01578,8.2e-4 0.03191,0.002 0.04707,7.1e-4 0.04445,0.003 0.08855,0.004 0.13206,0.008 0.02658,0.003 0.104614,0.0109 0.07819,0.008 -1.53732,-0.13369 -2.091362,-0.19708 -1.494292,-0.12949 0.14327,0.0194 0.283254,0.0429 0.419974,0.071 0.142531,0.0361 0.293091,0.0628 0.438373,0.0955 0.123648,0.0256 0.233221,0.0647 0.340376,0.1067 0.120583,0.0509 0.231434,0.1096 0.340518,0.16931 0.158725,0.0876 0.309533,0.18063 0.456596,0.27618 0.181109,0.11416 0.337964,0.24278 0.495187,0.37105 0.151385,0.12476 0.300063,0.251 0.447249,0.37808 0.144562,0.12753 0.27352,0.26313 0.391559,0.4035 0.08391,0.10274 0.170076,0.20443 0.258729,0.30508 0.06903,0.0857 0.14473,0.16853 0.208761,0.25635 0.05159,0.0842 0.126337,0.15838 0.180172,0.24159 0.04902,0.0682 0.08055,0.14205 0.113231,0.21557 0.04148,0.0685 0.07868,0.13864 0.109217,0.21094 0.02974,0.0484 0.04808,0.10056 0.07181,0.15092 1.091737,0.11605 1.309896,0.43036 1.970873,0.0303 0.134558,-0.0877 0.237401,-0.18826 0.324388,-0.29347 0.116459,-0.17336 0.180033,-0.35082 0.236921,-0.5268 0.06028,-0.20489 0.07407,-0.40699 0.06841,-0.60495 -0.0144,-0.25279 -0.07043,-0.49748 -0.130948,-0.74029 -0.04758,-0.17787 -0.101103,-0.35464 -0.182522,-0.52282 -0.04974,-0.10263 -0.06907,-0.13002 -0.127906,-0.22805 -0.11464,-0.18068 -0.252324,-0.35249 -0.405295,-0.5168 -0.111568,-0.12306 -0.223819,-0.24563 -0.333104,-0.36965 -0.08006,-0.0957 -0.172394,-0.18578 -0.257862,-0.27907 -0.05394,-0.0487 -0.102414,-0.0998 -0.161264,-0.1455 -0.05834,-0.0507 -0.115603,-0.10233 -0.178066,-0.15083 -0.04666,-0.0383 -0.09062,-0.078 -0.137054,-0.11633 -0.03505,-0.0296 -0.01716,-0.0156 -0.05329,-0.0418 0,0 -1.742654,-0.0365 -1.742654,-0.0365 v 0 c 0.03469,0.0271 0.01649,0.0144 0.05493,0.038 0.04778,0.0381 0.09662,0.0753 0.136883,0.11715 0.06001,0.049 0.127175,0.094 0.1829,0.14555 0.02343,0.0243 0.05212,0.0431 0.0773,0.066 0.02944,0.0269 0.05383,0.0564 0.09058,0.0792 0.04909,0.0369 0.08498,0.0784 0.125617,0.11999 0.05772,0.0587 0.03584,0.0375 0.09981,0.0944 0.01788,0.0179 0.03345,0.0367 0.05018,0.0552 0.108366,0.12683 0.226579,0.24886 0.339386,0.37353 0.15662,0.16142 0.312712,0.3237 0.43009,0.50254 0.07412,0.11001 0.145499,0.22101 0.197966,0.33881 0.05609,0.12598 0.0914,0.25802 0.128331,0.38916 0.0543,0.23856 0.114227,0.47648 0.124902,0.72443 4.73e-4,0.19017 -0.0085,0.38341 -0.06374,0.57933 -0.05275,0.16231 -0.108769,0.32824 -0.233892,0.48592 -0.07829,0.0875 -0.167374,0.17358 -0.295951,0.23747 -0.04333,0.0207 -0.09398,0.0434 -0.143779,0.0487 -0.04798,0.002 -0.07733,-0.0156 -0.06307,-0.0143 0.546202,0.0504 1.088646,0.10729 1.632966,0.16094 -0.01249,0.004 -0.0223,0.0157 -0.03587,0.019 -0.0077,0.002 -0.01656,0.001 -0.02133,-0.004 -0.0075,-0.007 -0.0063,-0.0142 -0.0096,-0.0214 -0.01203,-0.0244 -0.0265,-0.048 -0.04205,-0.071 -0.04529,-0.0677 -0.06391,-0.14534 -0.112839,-0.21192 -0.04801,-0.0702 -0.05781,-0.15407 -0.11327,-0.22215 -0.02856,-0.0416 -0.04913,-0.0857 -0.08224,-0.125 -0.0013,-7.9e-4 -0.06955,-0.0738 -0.07032,-0.0747 -0.01109,-0.0131 -0.02017,-0.0284 -0.03037,-0.0428 -0.05916,-0.0929 -0.135118,-0.17821 -0.206165,-0.26624 -0.08968,-0.10108 -0.184899,-0.19983 -0.268868,-0.30366 -0.121559,-0.14281 -0.254091,-0.28071 -0.394013,-0.41483 -0.14011,-0.13218 -0.295877,-0.25604 -0.447515,-0.38199 -0.156237,-0.13061 -0.309192,-0.26391 -0.490125,-0.38003 -0.140172,-0.0983 -0.281333,-0.196 -0.438913,-0.28285 -0.104804,-0.0643 -0.214239,-0.12464 -0.327632,-0.18278 -0.104953,-0.0485 -0.212102,-0.0965 -0.3361,-0.1278 -0.02105,-0.006 -0.129261,-0.0339 -0.149161,-0.0381 -0.09501,-0.0201 -0.195662,-0.034 -0.286411,-0.0593 -0.134539,-0.0341 -0.273379,-0.0624 -0.417964,-0.0836 -0.664592,-0.11332 -1.3774,-0.16311 -2.097331,-0.17936 0,0 1.581321,0.31621 1.581321,0.31621 z" />
        <g
           id="g8459">
          <path
             style="fill:#000000;fill-opacity:1;stroke-width:0.953095;stroke-dasharray:none"
             id="path7762"
             d="m 83.30022,111.76777 c 0.07706,0.0774 0.142435,0.17674 3.292332,0.1613 3.149897,-0.0155 3.274744,-0.0445 3.399548,-0.0724 l -2.291216,-2.00084 c -0.272587,0.0611 -0.53573,0.12401 -3.227376,0.0248 -2.691646,-0.0991 -2.984593,-0.29776 -3.091359,-0.36326 -0.106766,-0.0654 1.917926,2.25231 1.917926,2.25231 z"
             sodipodi:nodetypes="ccccczcc" />
          <path
             style="fill:#000000;fill-opacity:1;stroke-width:0.566416;stroke-dasharray:none"
             id="path7764"
             d="m 84.170285,112.64335 c -1.450177,0.30857 -1.864161,-8.9e-4 -1.953311,0.0231 l 1.544201,1.5101 2.331562,-0.42987 c 0.75234,-0.14772 0.974841,-0.18952 1.937591,-0.25983 0.962749,-0.0703 1.239376,-0.0733 1.506439,-0.0602 l -1.033556,-1.30982 c -0.178657,-0.0281 -0.686678,-0.003 -1.698844,0.0792 -1.012163,0.0826 -1.18391,0.13851 -2.634086,0.44711 z"
             sodipodi:nodetypes="cccccccccc" />
          <path
             style="fill:#000000;fill-opacity:1;stroke-width:0.585482;stroke-dasharray:none"
             id="path7766"
             d="m 82.870064,115.41481 c 0.226175,0.0138 0.446801,0.0373 0.668396,0.0589 0.23835,0.0212 0.474038,0.0466 0.711309,0.0695 0.216522,0.0221 0.434039,0.0427 0.65178,0.0629 0.300084,0.0251 0.595778,0.0574 0.894358,0.085 0.416655,0.0262 0.79602,0.10639 1.171252,0.19083 0.375497,0.0973 0.693798,0.25411 1.043868,0.37797 0.125316,0.0648 0.277188,0.10407 0.411131,0.16054 0.03933,0.0161 0.07337,0.0373 0.112055,0.0541 0.06758,0.0294 0.149958,0.0566 0.222262,0.0816 0.03309,0.009 0.06494,0.0206 0.09801,0.0299 0,0 -1.165955,-1.33557 -1.165955,-1.33557 v 0 c -0.02912,-0.011 -0.0582,-0.022 -0.08813,-0.0316 -0.245563,-0.0961 -0.488161,-0.19516 -0.738575,-0.2865 -0.347457,-0.12926 -0.682151,-0.27402 -1.072852,-0.35675 -0.388039,-0.0796 -0.790276,-0.13969 -1.20651,-0.17895 -0.299672,-0.0312 -0.602408,-0.0575 -0.901456,-0.0897 -0.217383,-0.0222 -0.435088,-0.0439 -0.653738,-0.0641 -0.236718,-0.0232 -0.474849,-0.0442 -0.710666,-0.0688 -0.227765,-0.0216 -0.457426,-0.0404 -0.678754,-0.0721 0,0 1.231542,1.31408 1.231542,1.31408 z" />
        </g>
        <g
           id="g8237"
           transform="rotate(-15.156738,64.922288,71.727947)">
          <path
             id="path7992"
             style="fill:#000000;fill-opacity:1;stroke-width:0.264999;stroke-dasharray:none"
             d="m 59.005701,114.39767 a 2.4311948,2.4311948 0 0 0 -2.431376,2.43086 2.4311948,2.4311948 0 0 0 2.431376,2.43137 2.4311948,2.4311948 0 0 0 2.431376,-2.43137 2.4311948,2.4311948 0 0 0 -2.431376,-2.43086 z m -0.02842,1.16272 a 1.3,1.3 0 0 1 1.300179,1.30018 1.3,1.3 0 0 1 -1.300179,1.30018 1.3,1.3 0 0 1 -1.299663,-1.30018 1.3,1.3 0 0 1 1.299663,-1.30018 z" />
          <path
             id="rect8207"
             style="stroke-width:0.193189"
             d="m 59.816912,119.15423 c 0.385198,-0.15367 0.642082,-0.33387 0.808258,-0.47197 l 1.204909,0.69242 -0.79374,0.46618 z"
             sodipodi:nodetypes="ccccc" />
        </g>
        <g
           id="g8334"
           transform="matrix(0.46291282,-0.04428689,0.04236623,0.4659268,45.016559,68.834285)">
          <path
             id="rect8265"
             style="stroke-width:0.365754"
             d="m 69.639092,93.946905 c -3.585667,-0.47345 -6.767901,0.580402 -9.604031,2.944514 0.750379,0.722744 1.455403,1.598623 1.976857,2.325015 2.316174,-2.040374 4.662753,-2.606331 7.025082,-2.408538 z"
             sodipodi:nodetypes="ccccc" />
          <path
             id="rect8295"
             style="stroke-width:0.418701"
             d="m 63.69539,98.806514 c 0.681056,-0.955804 2.444843,-1.708477 3.377174,-0.995626 1.886946,1.442741 1.332163,5.270342 -0.15277,7.124272 -0.624512,0.7797 -2.109606,1.31487 -2.909888,0.71696 -1.829949,-1.36719 -1.640083,-4.98529 -0.314516,-6.845606 z"
             sodipodi:nodetypes="aaaaa" />
          <path
             id="path8300"
             style="stroke-width:0.365754"
             d="m 70.918402,107.0205 c -2.951676,2.09015 -6.258301,2.64102 -9.869429,1.87134 0.327012,-0.98919 0.542521,-2.09272 0.665296,-2.97843 3.000212,0.72562 5.340097,0.13259 7.337933,-1.14348 z"
             sodipodi:nodetypes="ccccc" />
        </g>
      </g>
      <path
         id="rect8595"
         style="fill:#000000;fill-opacity:1;stroke-width:0.327438;stroke-dasharray:none"
         d="m 65.956181,105.62766 v 2.16524 h -1.001489 v 20.07216 h 1.001489 v 1.99575 h 7.712707 v -3.06648 h -5.833752 v -18.10019 h 5.833752 v -3.06648 z" />
      <path
         id="rect8597"
         style="fill:#000000;fill-opacity:1;stroke-width:0.327438;stroke-dasharray:none"
         d="m 85.573913,105.5812 v 3.06648 h 6.043042 v 18.10019 h -6.043042 v 3.06648 h 7.712707 v -1.99575 h 1.210779 V 107.74644 H 93.28662 v -2.16524 z" />
    </g>
  </g>
</svg>
